<?xml version="1.0" encoding="utf-8"?>
<!-- Generator: Adobe Illustrator 24.1.3, SVG Export Plug-In . SVG Version: 6.00 Build 0)  -->
<svg version="1.1" id="Layer_1" xmlns="http://www.w3.org/2000/svg" xmlns:xlink="http://www.w3.org/1999/xlink" x="0px" y="0px"
	 viewBox="0 0 24 24" style="enable-background:new 0 0 24 24;" xml:space="preserve">
<style type="text/css">
	.st0{fill:none;stroke:#000000;stroke-width:2;stroke-linecap:round;stroke-linejoin:round;}
</style>
<path class="st0" d="M21,11.5c0,1.3-0.3,2.6-0.9,3.8c-1.4,2.9-4.4,4.7-7.6,4.7c-1.3,0-2.6-0.3-3.8-0.9L3,21l1.9-5.7
	C4.3,14.1,4,12.8,4,11.5c0-3.2,1.8-6.2,4.7-7.6C9.9,3.3,11.2,3,12.5,3H13c4.3,0.2,7.8,3.7,8,8V11.5z"/>
<circle cx="8.9" cy="12" r="1.1"/>
<circle cx="12.7" cy="12" r="1.1"/>
<circle cx="16.5" cy="12" r="1.1"/>
</svg>
