<?xml version="1.0" encoding="utf-8"?>
<!-- Generator: Adobe Illustrator 24.1.3, SVG Export Plug-In . SVG Version: 6.00 Build 0)  -->
<svg version="1.1" id="Layer_1" xmlns="http://www.w3.org/2000/svg" xmlns:xlink="http://www.w3.org/1999/xlink" x="0px" y="0px"
	 viewBox="0 0 24 24" style="enable-background:new 0 0 24 24;" xml:space="preserve">
<style type="text/css">
	.st0{fill-rule:evenodd;clip-rule:evenodd;}
</style>
<path class="st0" d="M11.3,2.1h1.6c1,0,1.8,0.8,1.8,1.8v5.5h5.5c1,0,1.8,0.8,1.8,1.8v1.6c0,1-0.8,1.8-1.8,1.8h-5.5v5.5
	c0,1-0.8,1.8-1.8,1.8h-1.6c-1,0-1.8-0.8-1.8-1.8v-5.5H3.9c-1,0-1.8-0.8-1.8-1.8v-1.6c0-1,0.8-1.8,1.8-1.8h5.5V3.9
	C9.4,2.9,10.3,2.1,11.3,2.1z"/>
</svg>
