<?xml version="1.0" encoding="utf-8"?><!-- Generator: Adobe Illustrator 24.1.3, SVG Export Plug-In . SVG Version: 6.00 Build 0)  -->
<svg version="1.1" id="Layer_1" xmlns="http://www.w3.org/2000/svg" x="0px" y="0px" viewBox="0 0 24 24"
	style="enable-background:new 0 0 24 24;" xml:space="preserve">
<style type="text/css">
	.st0{fill:none;stroke:#200E32;stroke-width:2;stroke-linecap:round;stroke-linejoin:round;}
</style>
    <g transform="translate(2.5 1.5)">
	<path class="st0" d="M18.3,6.1L17.7,5c-0.5-0.9-1.7-1.2-2.6-0.7l0,0c-0.4,0.3-1,0.3-1.4,0.2c-0.5-0.1-0.9-0.4-1.2-0.9
		c-0.2-0.3-0.3-0.6-0.3-0.9l0,0c0-0.5-0.2-1-0.5-1.4c-0.4-0.4-0.9-0.6-1.4-0.6H9c-0.5,0-1,0.2-1.3,0.6S7.1,2.2,7.1,2.7l0,0
		c0,1-0.9,1.9-1.9,1.9c-0.3,0-0.6-0.1-0.9-0.3l0,0C3.4,3.8,2.2,4.1,1.7,5L1,6.1C0.5,7,0.8,8.2,1.7,8.7l0,0c0.6,0.3,1,1,1,1.7
		s-0.4,1.3-1,1.7l0,0c-0.9,0.5-1.2,1.7-0.7,2.6l0,0l0.6,1.1c0.2,0.4,0.7,0.8,1.2,0.9c0.5,0.1,1,0.1,1.5-0.2l0,0
		c0.4-0.3,1-0.3,1.4-0.2s0.9,0.5,1.2,0.9c0.2,0.3,0.3,0.6,0.3,0.9l0,0C7.1,19.1,8,20,9,20h1.3c1.1,0,1.9-0.9,1.9-1.9l0,0
		c0-0.5,0.2-1,0.6-1.4s0.8-0.6,1.4-0.6c0.3,0,0.6,0.1,0.9,0.3l0,0c0.9,0.5,2.1,0.2,2.6-0.7l0,0l0.7-1.1c0.3-0.4,0.3-1,0.2-1.4
		c-0.1-0.5-0.5-0.9-0.9-1.2l0,0c-0.4-0.3-0.8-0.7-0.9-1.2c-0.1-0.5-0.1-1,0.2-1.4c0.2-0.3,0.4-0.5,0.7-0.7l0,0
		C18.5,8.2,18.8,7,18.3,6.1L18.3,6.1L18.3,6.1z" />
        <circle class="st0" cx="9.7" cy="10.4" r="2.6" />
</g>
</svg>
